<mxfile host="Electron" modified="2023-12-17T13:08:04.422Z" agent="Mozilla/5.0 (Windows NT 10.0; Win64; x64) AppleWebKit/537.36 (KHTML, like Gecko) draw.io/21.6.1 Chrome/112.0.5615.204 Electron/24.6.1 Safari/537.36" etag="PQH7nf-30EXs-XPJnzRG" version="21.6.1" type="device">
  <diagram name="第 1 页" id="a9Wf5TV9nVjGO6Tv2hhZ">
    <mxGraphModel dx="819" dy="482" grid="1" gridSize="10" guides="1" tooltips="1" connect="1" arrows="1" fold="1" page="1" pageScale="1" pageWidth="827" pageHeight="1169" math="0" shadow="0">
      <root>
        <mxCell id="0" />
        <mxCell id="1" parent="0" />
        <mxCell id="ID8K3i6d8GU5OvOUfzLR-1" value="" style="rounded=0;whiteSpace=wrap;html=1;strokeWidth=2;movable=1;resizable=1;rotatable=1;deletable=1;editable=1;locked=0;connectable=1;strokeColor=default;dashed=1;" vertex="1" parent="1">
          <mxGeometry x="153.07" y="522" width="520" height="520" as="geometry" />
        </mxCell>
        <mxCell id="23zf3ZDxFuH2GOHtfAAV-3" value="" style="rounded=0;whiteSpace=wrap;html=1;strokeWidth=2;movable=1;resizable=1;rotatable=1;deletable=1;editable=1;locked=0;connectable=1;strokeColor=none;" parent="1" vertex="1">
          <mxGeometry x="153.07" y="82" width="520" height="440" as="geometry" />
        </mxCell>
        <mxCell id="cdcSO7X_m1t3T7RE_XPv-1" value="" style="endArrow=none;html=1;rounded=0;exitX=0;exitY=0;exitDx=0;exitDy=0;entryX=1;entryY=0;entryDx=0;entryDy=0;strokeWidth=3;" parent="1" edge="1">
          <mxGeometry width="50" height="50" relative="1" as="geometry">
            <mxPoint x="153.07" y="82" as="sourcePoint" />
            <mxPoint x="673.07" y="82" as="targetPoint" />
          </mxGeometry>
        </mxCell>
        <mxCell id="cdcSO7X_m1t3T7RE_XPv-2" value="" style="endArrow=none;html=1;rounded=0;exitX=0;exitY=0;exitDx=0;exitDy=0;entryX=1;entryY=0;entryDx=0;entryDy=0;strokeWidth=3;" parent="1" edge="1">
          <mxGeometry width="50" height="50" relative="1" as="geometry">
            <mxPoint x="152.51999999999998" y="522" as="sourcePoint" />
            <mxPoint x="672.5200000000001" y="522" as="targetPoint" />
          </mxGeometry>
        </mxCell>
        <mxCell id="cdcSO7X_m1t3T7RE_XPv-3" value="" style="endArrow=none;html=1;rounded=0;strokeWidth=3;" parent="1" edge="1">
          <mxGeometry width="50" height="50" relative="1" as="geometry">
            <mxPoint x="152.51999999999998" y="524" as="sourcePoint" />
            <mxPoint x="152.07" y="80" as="targetPoint" />
          </mxGeometry>
        </mxCell>
        <mxCell id="cdcSO7X_m1t3T7RE_XPv-4" value="" style="endArrow=none;html=1;rounded=0;strokeWidth=2;dashed=1;" parent="1" edge="1">
          <mxGeometry width="50" height="50" relative="1" as="geometry">
            <mxPoint x="674" y="522" as="sourcePoint" />
            <mxPoint x="673.07" y="80" as="targetPoint" />
          </mxGeometry>
        </mxCell>
        <mxCell id="cdcSO7X_m1t3T7RE_XPv-14" value="" style="endArrow=classic;html=1;rounded=0;strokeWidth=2;" parent="1" edge="1">
          <mxGeometry width="50" height="50" relative="1" as="geometry">
            <mxPoint x="142.51999999999998" y="657" as="sourcePoint" />
            <mxPoint x="123.07" y="667" as="targetPoint" />
            <Array as="points">
              <mxPoint x="102.52000000000001" y="657" />
              <mxPoint x="102.52000000000001" y="667" />
            </Array>
          </mxGeometry>
        </mxCell>
        <mxCell id="cdcSO7X_m1t3T7RE_XPv-15" value="" style="endArrow=classic;html=1;rounded=0;strokeWidth=2;" parent="1" edge="1">
          <mxGeometry width="50" height="50" relative="1" as="geometry">
            <mxPoint x="142.51999999999998" y="897" as="sourcePoint" />
            <mxPoint x="122.52000000000001" y="907" as="targetPoint" />
            <Array as="points">
              <mxPoint x="102.52000000000001" y="897" />
              <mxPoint x="102.52000000000001" y="907" />
            </Array>
          </mxGeometry>
        </mxCell>
        <mxCell id="cdcSO7X_m1t3T7RE_XPv-16" value="" style="endArrow=classic;html=1;rounded=0;strokeWidth=2;" parent="1" edge="1">
          <mxGeometry width="50" height="50" relative="1" as="geometry">
            <mxPoint x="683.07" y="657" as="sourcePoint" />
            <mxPoint x="703.07" y="667" as="targetPoint" />
            <Array as="points">
              <mxPoint x="723.07" y="657" />
              <mxPoint x="723.07" y="667" />
            </Array>
          </mxGeometry>
        </mxCell>
        <mxCell id="cdcSO7X_m1t3T7RE_XPv-17" value="" style="endArrow=classic;html=1;rounded=0;strokeWidth=2;" parent="1" edge="1">
          <mxGeometry width="50" height="50" relative="1" as="geometry">
            <mxPoint x="683.07" y="897" as="sourcePoint" />
            <mxPoint x="703.07" y="907" as="targetPoint" />
            <Array as="points">
              <mxPoint x="723.07" y="897" />
              <mxPoint x="723.07" y="907" />
            </Array>
          </mxGeometry>
        </mxCell>
        <mxCell id="cdcSO7X_m1t3T7RE_XPv-36" value="此&lt;br&gt;面&lt;br&gt;上&lt;br&gt;胶" style="text;strokeColor=none;align=center;fillColor=none;html=1;verticalAlign=middle;whiteSpace=wrap;rounded=0;" parent="1" vertex="1">
          <mxGeometry x="693.62" y="737" width="20" height="80" as="geometry" />
        </mxCell>
        <mxCell id="cdcSO7X_m1t3T7RE_XPv-37" value="此&lt;br&gt;面&lt;br&gt;上&lt;br&gt;胶" style="text;strokeColor=none;align=center;fillColor=none;html=1;verticalAlign=middle;whiteSpace=wrap;rounded=0;" parent="1" vertex="1">
          <mxGeometry x="113.07" y="737" width="20" height="80" as="geometry" />
        </mxCell>
        <mxCell id="ID8K3i6d8GU5OvOUfzLR-5" value="" style="endArrow=none;html=1;rounded=0;strokeWidth=3;" edge="1" parent="1">
          <mxGeometry width="50" height="50" relative="1" as="geometry">
            <mxPoint x="153.07" y="1042" as="sourcePoint" />
            <mxPoint x="81.07" y="973" as="targetPoint" />
          </mxGeometry>
        </mxCell>
        <mxCell id="ID8K3i6d8GU5OvOUfzLR-6" value="" style="endArrow=none;html=1;rounded=0;strokeWidth=3;" edge="1" parent="1">
          <mxGeometry width="50" height="50" relative="1" as="geometry">
            <mxPoint x="745.07" y="591" as="sourcePoint" />
            <mxPoint x="673.07" y="522" as="targetPoint" />
          </mxGeometry>
        </mxCell>
        <mxCell id="ID8K3i6d8GU5OvOUfzLR-7" value="" style="endArrow=none;html=1;rounded=0;exitX=-0.001;exitY=0.147;exitDx=0;exitDy=0;exitPerimeter=0;strokeWidth=3;" edge="1" parent="1">
          <mxGeometry width="50" height="50" relative="1" as="geometry">
            <mxPoint x="673.07" y="1042" as="sourcePoint" />
            <mxPoint x="745.142" y="971.44" as="targetPoint" />
          </mxGeometry>
        </mxCell>
        <mxCell id="ID8K3i6d8GU5OvOUfzLR-8" value="" style="endArrow=none;html=1;rounded=0;exitX=-0.001;exitY=0.147;exitDx=0;exitDy=0;exitPerimeter=0;strokeWidth=3;" edge="1" parent="1">
          <mxGeometry width="50" height="50" relative="1" as="geometry">
            <mxPoint x="601.0000000000001" y="1114" as="sourcePoint" />
            <mxPoint x="673.072" y="1043.44" as="targetPoint" />
          </mxGeometry>
        </mxCell>
        <mxCell id="ID8K3i6d8GU5OvOUfzLR-9" value="" style="endArrow=none;html=1;rounded=0;strokeWidth=3;exitX=0.142;exitY=1.008;exitDx=0;exitDy=0;exitPerimeter=0;" edge="1" parent="1">
          <mxGeometry width="50" height="50" relative="1" as="geometry">
            <mxPoint x="226.9099999999999" y="1114.5760000000002" as="sourcePoint" />
            <mxPoint x="153.07" y="1043.5" as="targetPoint" />
          </mxGeometry>
        </mxCell>
        <mxCell id="ID8K3i6d8GU5OvOUfzLR-10" value="" style="endArrow=none;html=1;rounded=0;exitX=-0.001;exitY=0.147;exitDx=0;exitDy=0;exitPerimeter=0;strokeWidth=3;" edge="1" parent="1">
          <mxGeometry width="50" height="50" relative="1" as="geometry">
            <mxPoint x="81.06799999999998" y="592.56" as="sourcePoint" />
            <mxPoint x="153.14" y="522" as="targetPoint" />
          </mxGeometry>
        </mxCell>
        <mxCell id="ID8K3i6d8GU5OvOUfzLR-11" value="" style="endArrow=none;html=1;rounded=0;strokeWidth=3;exitX=0.13;exitY=-0.001;exitDx=0;exitDy=0;exitPerimeter=0;" edge="1" parent="1">
          <mxGeometry width="50" height="50" relative="1" as="geometry">
            <mxPoint x="80.9980000000001" y="974.3999999999999" as="sourcePoint" />
            <mxPoint x="81.07" y="590" as="targetPoint" />
          </mxGeometry>
        </mxCell>
        <mxCell id="ID8K3i6d8GU5OvOUfzLR-12" value="" style="endArrow=none;html=1;rounded=0;strokeWidth=3;exitX=0.13;exitY=-0.001;exitDx=0;exitDy=0;exitPerimeter=0;" edge="1" parent="1">
          <mxGeometry width="50" height="50" relative="1" as="geometry">
            <mxPoint x="745.07" y="974" as="sourcePoint" />
            <mxPoint x="745.07" y="590" as="targetPoint" />
          </mxGeometry>
        </mxCell>
        <mxCell id="ID8K3i6d8GU5OvOUfzLR-13" value="" style="endArrow=none;html=1;rounded=0;strokeWidth=3;" edge="1" parent="1">
          <mxGeometry width="50" height="50" relative="1" as="geometry">
            <mxPoint x="223.07" y="1114" as="sourcePoint" />
            <mxPoint x="603.07" y="1114" as="targetPoint" />
          </mxGeometry>
        </mxCell>
        <mxCell id="ID8K3i6d8GU5OvOUfzLR-14" value="" style="endArrow=classic;html=1;rounded=0;strokeWidth=2;" edge="1" parent="1">
          <mxGeometry width="50" height="50" relative="1" as="geometry">
            <mxPoint x="280" y="1050" as="sourcePoint" />
            <mxPoint x="270" y="1070" as="targetPoint" />
            <Array as="points">
              <mxPoint x="280" y="1090" />
              <mxPoint x="270" y="1090" />
            </Array>
          </mxGeometry>
        </mxCell>
        <mxCell id="ID8K3i6d8GU5OvOUfzLR-15" value="" style="endArrow=classic;html=1;rounded=0;strokeWidth=2;" edge="1" parent="1">
          <mxGeometry width="50" height="50" relative="1" as="geometry">
            <mxPoint x="560" y="1050" as="sourcePoint" />
            <mxPoint x="550" y="1070" as="targetPoint" />
            <Array as="points">
              <mxPoint x="560" y="1090" />
              <mxPoint x="550" y="1090" />
            </Array>
          </mxGeometry>
        </mxCell>
        <mxCell id="ID8K3i6d8GU5OvOUfzLR-16" value="此面上胶" style="text;strokeColor=none;align=center;fillColor=none;html=1;verticalAlign=middle;whiteSpace=wrap;rounded=0;direction=north;" vertex="1" parent="1">
          <mxGeometry x="374" y="1070" width="80" height="20" as="geometry" />
        </mxCell>
        <mxCell id="yzPtgFyk8vfwxb-vlYoI-1" value="" style="endArrow=none;html=1;rounded=0;strokeWidth=3;" edge="1" parent="1">
          <mxGeometry width="50" height="50" relative="1" as="geometry">
            <mxPoint x="745.07" y="151" as="sourcePoint" />
            <mxPoint x="673.07" y="82" as="targetPoint" />
          </mxGeometry>
        </mxCell>
        <mxCell id="yzPtgFyk8vfwxb-vlYoI-2" value="" style="endArrow=none;html=1;rounded=0;exitX=-0.001;exitY=0.147;exitDx=0;exitDy=0;exitPerimeter=0;strokeWidth=3;" edge="1" parent="1">
          <mxGeometry width="50" height="50" relative="1" as="geometry">
            <mxPoint x="673.07" y="522" as="sourcePoint" />
            <mxPoint x="745.142" y="451.44000000000005" as="targetPoint" />
          </mxGeometry>
        </mxCell>
        <mxCell id="yzPtgFyk8vfwxb-vlYoI-3" value="" style="endArrow=none;html=1;rounded=0;strokeWidth=3;" edge="1" parent="1">
          <mxGeometry width="50" height="50" relative="1" as="geometry">
            <mxPoint x="745" y="451" as="sourcePoint" />
            <mxPoint x="745" y="150" as="targetPoint" />
          </mxGeometry>
        </mxCell>
        <mxCell id="yzPtgFyk8vfwxb-vlYoI-4" value="" style="endArrow=classic;html=1;rounded=0;strokeWidth=2;" edge="1" parent="1">
          <mxGeometry width="50" height="50" relative="1" as="geometry">
            <mxPoint x="683.62" y="177" as="sourcePoint" />
            <mxPoint x="703.62" y="187" as="targetPoint" />
            <Array as="points">
              <mxPoint x="723.62" y="177" />
              <mxPoint x="723.62" y="187" />
            </Array>
          </mxGeometry>
        </mxCell>
        <mxCell id="yzPtgFyk8vfwxb-vlYoI-5" value="" style="endArrow=classic;html=1;rounded=0;strokeWidth=2;" edge="1" parent="1">
          <mxGeometry width="50" height="50" relative="1" as="geometry">
            <mxPoint x="683.62" y="417" as="sourcePoint" />
            <mxPoint x="703.62" y="427" as="targetPoint" />
            <Array as="points">
              <mxPoint x="723.62" y="417" />
              <mxPoint x="723.62" y="427" />
            </Array>
          </mxGeometry>
        </mxCell>
        <mxCell id="yzPtgFyk8vfwxb-vlYoI-6" value="此&lt;br&gt;面&lt;br&gt;上&lt;br&gt;胶" style="text;strokeColor=none;align=center;fillColor=none;html=1;verticalAlign=middle;whiteSpace=wrap;rounded=0;" vertex="1" parent="1">
          <mxGeometry x="694.17" y="257" width="20" height="80" as="geometry" />
        </mxCell>
      </root>
    </mxGraphModel>
  </diagram>
</mxfile>
